<svg xmlns="http://www.w3.org/2000/svg" xmlns:xlink="http://www.w3.org/1999/xlink" preserveAspectRatio="xMidYMid" width="36" height="58" viewBox="0 0 36 58">
  <defs>
    <style>
      .cls-1 {
        fill: #fff;
        fill-rule: evenodd;
      }
    </style>
  </defs>
  <path d="M32.339,5.565 C29.170,1.872 24.346,-0.001 18.000,-0.001 C11.654,-0.001 6.829,1.872 3.661,5.565 C0.475,9.278 -0.000,13.629 -0.000,15.892 L-0.000,42.106 C-0.000,44.370 0.475,48.720 3.661,52.433 C6.829,56.126 11.654,57.999 18.000,57.999 C24.346,57.999 29.170,56.126 32.339,52.433 C35.524,48.720 36.000,44.370 36.000,42.106 L36.000,15.892 C36.000,13.629 35.524,9.278 32.339,5.565 ZM18.000,20.206 C16.685,20.206 15.615,19.142 15.615,17.836 L15.615,12.757 C15.615,11.450 16.685,10.387 18.000,10.387 C19.315,10.387 20.385,11.450 20.385,12.757 L20.385,17.836 C20.385,19.142 19.315,20.206 18.000,20.206 ZM34.117,42.106 C34.117,44.448 33.340,56.128 18.000,56.128 C2.659,56.128 1.882,44.448 1.882,42.106 L1.882,15.892 C1.882,13.599 2.630,2.357 17.058,1.887 L17.058,8.621 C15.157,9.049 13.732,10.740 13.732,12.757 L13.732,17.836 C13.732,19.853 15.157,21.544 17.058,21.971 L17.058,29.658 C17.058,30.175 17.480,30.594 18.000,30.594 C18.520,30.594 18.941,30.175 18.941,29.658 L18.941,21.971 C20.843,21.544 22.268,19.853 22.268,17.836 L22.268,12.757 C22.268,10.740 20.843,9.049 18.941,8.621 L18.941,1.887 C33.370,2.357 34.117,13.599 34.117,15.892 L34.117,42.106 Z" class="cls-1"/>
</svg>
