<svg xmlns="http://www.w3.org/2000/svg" xmlns:xlink="http://www.w3.org/1999/xlink" preserveAspectRatio="xMidYMid" width="86" height="57" viewBox="0 0 86 57">
  <defs>
    <style>
      .cls-1 {
        fill: #363636;
        fill-rule: evenodd;
      }
    </style>
  </defs>
  <path d="M78.663,56.999 L7.337,56.999 C3.291,56.999 -0.000,53.666 -0.000,49.568 L-0.000,7.430 C-0.000,3.333 3.291,-0.000 7.337,-0.000 L78.663,-0.000 C82.709,-0.000 86.000,3.333 86.000,7.430 L86.000,49.568 C86.000,53.666 82.709,56.999 78.663,56.999 ZM83.214,7.430 C83.214,4.889 81.172,2.821 78.663,2.821 L7.337,2.821 C4.827,2.821 2.786,4.889 2.786,7.430 L2.786,49.568 C2.786,52.110 4.827,54.177 7.337,54.177 L78.663,54.177 C81.172,54.177 83.214,52.110 83.214,49.568 L83.214,7.430 ZM75.691,47.970 L48.944,47.970 C47.356,47.970 46.065,46.661 46.065,45.054 L46.065,26.994 C46.065,25.386 47.356,24.079 48.944,24.079 L75.691,24.079 C77.279,24.079 78.570,25.386 78.570,26.994 L78.570,45.054 C78.570,46.661 77.279,47.970 75.691,47.970 ZM75.784,26.994 C75.784,26.943 75.742,26.900 75.691,26.900 L48.944,26.900 C48.893,26.900 48.851,26.943 48.851,26.994 L48.851,45.054 C48.851,45.105 48.893,45.147 48.944,45.147 L75.691,45.147 C75.742,45.147 75.784,45.105 75.784,45.054 L75.784,26.994 ZM71.233,40.445 L53.402,40.445 C52.632,40.445 52.009,39.813 52.009,39.034 C52.009,38.255 52.632,37.623 53.402,37.623 L71.233,37.623 C72.003,37.623 72.626,38.255 72.626,39.034 C72.626,39.813 72.003,40.445 71.233,40.445 ZM71.233,34.425 L53.402,34.425 C52.632,34.425 52.009,33.794 52.009,33.014 C52.009,32.235 52.632,31.603 53.402,31.603 L71.233,31.603 C72.003,31.603 72.626,32.235 72.626,33.014 C72.626,33.794 72.003,34.425 71.233,34.425 ZM77.177,19.376 L47.458,19.376 C46.688,19.376 46.065,18.744 46.065,17.965 C46.065,17.186 46.688,16.554 47.458,16.554 L77.177,16.554 C77.947,16.554 78.570,17.186 78.570,17.965 C78.570,18.744 77.947,19.376 77.177,19.376 ZM65.289,13.356 L47.458,13.356 C46.688,13.356 46.065,12.725 46.065,11.945 C46.065,11.165 46.688,10.534 47.458,10.534 L65.289,10.534 C66.059,10.534 66.682,11.165 66.682,11.945 C66.682,12.725 66.059,13.356 65.289,13.356 ZM37.470,47.970 L11.796,47.970 C10.510,47.970 9.296,47.400 8.465,46.406 C7.634,45.413 7.279,44.106 7.490,42.822 L8.081,39.229 C8.365,37.505 9.628,36.110 11.300,35.675 L18.782,33.726 L18.782,31.066 C16.013,29.126 14.324,25.908 14.324,22.480 L14.324,17.965 C14.324,13.038 18.282,9.029 23.147,9.029 L26.119,9.029 C30.984,9.029 34.942,13.038 34.942,17.965 L34.942,22.480 C34.942,25.908 33.253,29.126 30.484,31.066 L30.484,33.726 L37.966,35.675 C39.638,36.110 40.901,37.505 41.185,39.230 L41.776,42.822 C41.987,44.106 41.632,45.413 40.801,46.406 C39.970,47.400 38.756,47.970 37.470,47.970 ZM38.437,39.693 C38.334,39.070 37.877,38.565 37.272,38.408 L28.744,36.187 C28.128,36.026 27.698,35.464 27.698,34.820 L27.698,30.291 C27.698,29.788 27.963,29.322 28.393,29.070 C30.714,27.708 32.156,25.183 32.156,22.480 L32.156,17.965 C32.156,14.594 29.448,11.851 26.119,11.851 L23.147,11.851 C19.818,11.851 17.110,14.594 17.110,17.965 L17.110,22.480 C17.110,25.183 18.552,27.708 20.874,29.070 C21.303,29.323 21.568,29.788 21.568,30.291 L21.568,34.820 C21.568,35.464 21.138,36.026 20.522,36.187 L11.994,38.408 C11.389,38.565 10.932,39.070 10.829,39.693 L10.238,43.286 C10.161,43.757 10.286,44.218 10.591,44.582 C10.896,44.947 11.324,45.147 11.796,45.147 L37.470,45.147 C37.942,45.147 38.370,44.947 38.675,44.582 C38.980,44.218 39.105,43.757 39.028,43.286 L38.437,39.693 Z" class="cls-1"/>
</svg>
