<svg xmlns="http://www.w3.org/2000/svg" xmlns:xlink="http://www.w3.org/1999/xlink" preserveAspectRatio="xMidYMid" width="70" height="56" viewBox="0 0 70 56">
  <defs>
    <style>
      .cls-1 {
        fill: #363636;
        fill-rule: evenodd;
      }
    </style>
  </defs>
  <path d="M66.585,45.379 L42.716,45.379 L43.711,52.916 L47.965,52.916 C48.819,52.916 49.511,53.607 49.511,54.458 C49.511,55.309 48.819,55.999 47.965,55.999 L22.035,55.999 C21.181,55.999 20.488,55.309 20.488,54.458 C20.488,53.607 21.181,52.916 22.035,52.916 L26.289,52.916 L27.284,45.379 L3.415,45.379 C1.532,45.379 -0.000,43.852 -0.000,41.975 L-0.000,3.403 C-0.000,1.526 1.532,-0.001 3.415,-0.001 L66.585,-0.001 C68.468,-0.001 70.000,1.526 70.000,3.403 L70.000,41.975 C70.000,43.852 68.468,45.379 66.585,45.379 ZM40.591,52.916 L39.597,45.379 L30.403,45.379 L29.409,52.916 L40.591,52.916 ZM66.907,3.403 C66.907,3.226 66.762,3.083 66.585,3.083 L3.415,3.083 C3.238,3.083 3.093,3.226 3.093,3.403 L3.093,35.984 L66.907,35.984 L66.907,3.403 ZM66.907,39.067 L3.093,39.067 L3.093,41.975 C3.093,42.152 3.238,42.296 3.415,42.296 L66.585,42.296 C66.762,42.296 66.907,42.152 66.907,41.975 L66.907,39.067 ZM24.341,7.921 L45.659,7.921 C48.267,7.921 50.389,10.036 50.389,12.636 L50.389,27.099 C50.389,29.699 48.267,31.814 45.659,31.814 L24.341,31.814 C21.733,31.814 19.611,29.699 19.611,27.099 L19.611,12.636 C19.611,10.036 21.733,7.921 24.341,7.921 ZM22.704,27.099 C22.704,27.999 23.439,28.731 24.341,28.731 L45.659,28.731 C46.561,28.731 47.296,27.999 47.296,27.099 L47.296,12.635 C47.296,11.735 46.561,11.003 45.659,11.003 L24.341,11.003 C23.439,11.003 22.704,11.735 22.704,12.635 L22.704,27.099 ZM32.210,14.479 C32.689,14.204 33.279,14.204 33.757,14.479 L40.801,18.533 C41.280,18.807 41.575,19.316 41.575,19.867 C41.575,20.418 41.280,20.927 40.801,21.202 L33.757,25.255 C33.518,25.393 33.251,25.462 32.984,25.462 C32.717,25.462 32.450,25.393 32.210,25.255 C31.732,24.980 31.437,24.472 31.437,23.921 L31.437,15.814 C31.437,15.263 31.732,14.755 32.210,14.479 ZM34.530,21.250 L36.935,19.867 L34.530,18.484 L34.530,21.250 Z" class="cls-1"/>
</svg>
