<svg xmlns="http://www.w3.org/2000/svg" xmlns:xlink="http://www.w3.org/1999/xlink" preserveAspectRatio="xMidYMid" width="143.781" height="139" viewBox="0 0 143.781 139">
  <defs>
    <style>
      .cls-1 {
        fill: #059feb;
        fill-rule: evenodd;
      }
    </style>
  </defs>
  <path d="M143.787,69.624 L143.787,69.846 L143.787,126.277 C143.787,128.800 143.424,130.664 142.371,132.105 C141.483,133.325 139.653,134.786 136.642,134.809 C134.951,134.797 133.198,134.337 130.997,133.666 C130.745,133.588 130.533,133.481 130.303,133.359 C122.209,129.131 113.480,124.643 107.861,121.850 L108.079,125.339 C108.080,125.356 108.082,125.346 108.083,125.335 C107.981,133.247 101.590,139.007 93.434,139.007 L14.906,139.007 C6.687,139.007 -0.003,133.708 -0.003,125.851 L-0.003,71.036 C-0.003,62.869 6.960,55.117 14.906,55.117 L93.434,55.117 C101.516,55.117 108.092,62.183 108.092,70.344 C108.092,70.446 108.088,70.757 108.081,70.857 L107.976,72.430 C114.194,69.219 123.706,64.264 130.352,60.736 C132.593,59.662 134.437,59.207 136.145,59.207 C138.252,59.207 139.977,59.960 141.364,61.365 C144.003,64.020 143.787,67.953 143.787,69.624 ZM135.513,67.736 C135.198,67.829 134.760,67.988 134.181,68.265 C104.979,83.758 104.611,83.762 103.231,83.762 C102.057,83.762 100.936,83.279 100.135,82.426 C99.336,81.574 98.930,80.427 99.012,79.267 L99.632,70.209 C99.562,66.793 96.754,63.504 93.434,63.504 L14.906,63.504 L14.906,63.507 C11.604,63.507 8.455,67.480 8.455,71.036 L8.455,125.851 C8.455,129.108 11.316,130.618 14.906,130.618 L93.434,130.618 C96.872,130.618 99.572,128.517 99.634,125.268 L99.010,115.126 C98.940,113.970 99.352,112.947 100.152,112.108 C100.951,111.265 102.065,110.842 103.231,110.842 C104.487,110.842 105.476,110.867 133.921,125.719 C134.361,125.851 134.991,126.046 135.581,126.187 L135.585,69.488 C135.598,68.664 135.564,68.112 135.513,67.736 ZM48.883,71.896 L46.768,71.896 C45.599,71.896 44.654,70.958 44.654,69.798 C44.654,68.639 45.599,67.701 46.768,67.701 L48.883,67.701 C50.052,67.701 50.997,68.639 50.997,69.798 C50.997,70.958 50.052,71.896 48.883,71.896 ZM38.310,71.893 L20.349,71.893 C18.803,71.893 16.913,74.815 16.913,76.767 L16.913,87.426 C16.913,88.587 15.968,89.525 14.799,89.525 C13.629,89.525 12.684,88.587 12.684,87.428 L12.684,76.770 C12.684,72.889 16.105,67.699 20.349,67.699 L38.310,67.699 C39.479,67.699 40.425,68.636 40.425,69.796 C40.425,70.956 39.479,71.893 38.310,71.893 ZM136.575,134.813 C136.598,134.813 136.619,134.809 136.642,134.809 C136.663,134.809 136.685,134.813 136.706,134.813 C136.706,134.813 136.573,134.813 136.575,134.813 ZM90.628,52.070 C76.150,52.070 64.374,40.391 64.374,26.031 C64.374,11.671 76.152,-0.011 90.628,-0.011 C105.108,-0.011 116.886,11.671 116.886,26.031 C116.886,40.391 105.108,52.070 90.628,52.070 ZM90.628,8.378 C80.814,8.378 72.832,16.295 72.832,26.031 C72.832,35.764 80.814,43.681 90.628,43.681 C100.444,43.681 108.428,35.764 108.428,26.031 C108.428,16.298 100.444,8.378 90.628,8.378 ZM90.628,16.579 C87.443,16.579 84.483,18.147 82.709,20.773 C82.301,21.379 81.631,21.704 80.950,21.704 C80.546,21.704 80.136,21.589 79.774,21.350 C78.803,20.704 78.546,19.401 79.195,18.439 C81.757,14.647 86.031,12.384 90.628,12.384 C91.797,12.384 92.743,13.322 92.743,14.481 C92.743,15.641 91.797,16.579 90.628,16.579 ZM31.421,52.070 C16.943,52.070 5.167,40.391 5.167,26.031 C5.167,11.671 16.945,-0.011 31.421,-0.011 C45.901,-0.011 57.679,11.671 57.679,26.031 C57.679,40.391 45.901,52.070 31.421,52.070 ZM31.421,8.378 C21.607,8.378 13.625,16.295 13.625,26.031 C13.625,35.764 21.607,43.681 31.421,43.681 C41.237,43.681 49.221,35.764 49.221,26.031 C49.221,16.298 41.237,8.378 31.421,8.378 ZM31.421,16.579 C28.237,16.579 25.276,18.147 23.502,20.773 C23.094,21.379 22.424,21.704 21.743,21.704 C21.339,21.704 20.929,21.589 20.567,21.350 C19.596,20.704 19.338,19.401 19.988,18.439 C22.551,14.647 26.824,12.384 31.421,12.384 C32.590,12.384 33.535,13.322 33.535,14.481 C33.535,15.641 32.590,16.579 31.421,16.579 ZM20.250,22.503 C21.396,22.721 22.147,23.823 21.929,24.959 C21.876,25.234 21.876,25.234 21.884,25.473 L21.895,26.033 C21.893,27.191 20.946,28.128 19.778,28.128 C18.609,28.128 17.664,27.191 17.664,26.031 L17.655,25.611 C17.641,25.171 17.641,24.854 17.774,24.169 C17.994,23.032 19.110,22.294 20.250,22.503 ZM108.092,125.159 C108.092,125.176 108.089,125.193 108.089,125.211 C108.091,125.164 108.092,125.127 108.092,125.159 Z" class="cls-1"/>
</svg>
