<svg xmlns="http://www.w3.org/2000/svg" xmlns:xlink="http://www.w3.org/1999/xlink" preserveAspectRatio="xMidYMid" width="177" height="143" viewBox="0 0 177 143">
  <defs>
    <style>
      .cls-1 {
        fill: #059feb;
        fill-rule: evenodd;
      }
    </style>
  </defs>
  <path d="M167.962,104.004 L9.039,104.004 C4.055,104.004 -0.000,99.932 -0.000,94.925 L-0.000,9.078 C-0.000,4.072 4.055,-0.001 9.039,-0.001 L167.962,-0.001 C172.944,-0.001 177.000,4.072 177.000,9.078 L177.000,94.925 C177.000,99.932 172.944,104.004 167.962,104.004 ZM169.700,9.078 C169.700,8.116 168.920,7.333 167.962,7.333 L9.039,7.333 C8.081,7.333 7.299,8.116 7.299,9.078 L7.299,94.925 C7.299,95.887 8.081,96.671 9.039,96.671 L167.962,96.671 C168.920,96.671 169.700,95.887 169.700,94.925 L169.700,9.078 ZM73.392,79.597 C72.763,80.046 71.406,80.858 69.604,79.867 C68.406,79.209 67.626,77.981 67.626,76.609 L67.626,27.394 C67.626,26.022 68.390,24.765 69.604,24.136 C70.818,23.507 72.279,23.612 73.392,24.407 L107.838,49.014 C108.801,49.702 109.372,50.815 109.372,52.002 C109.372,53.189 108.801,54.303 107.838,54.990 C107.838,54.990 82.002,73.445 73.392,79.597 ZM74.927,34.502 L74.927,69.502 L99.424,52.002 L74.927,34.502 ZM3.650,124.818 L75.629,124.818 C77.249,118.583 82.902,113.969 89.607,113.969 C96.313,113.969 101.967,118.583 103.587,124.818 L173.350,124.818 C175.364,124.818 177.000,126.460 177.000,128.484 C177.000,130.510 175.364,132.151 173.350,132.151 L103.588,132.151 C101.968,138.384 96.314,143.000 89.607,143.000 C82.902,143.000 77.250,138.385 75.629,132.151 L3.650,132.151 C1.635,132.151 -0.000,130.509 -0.000,128.484 C-0.000,126.460 1.635,124.818 3.650,124.818 ZM89.607,135.665 C93.549,135.665 96.756,132.444 96.756,128.484 C96.756,124.524 93.549,121.303 89.607,121.303 C85.667,121.303 82.459,124.524 82.459,128.484 C82.459,132.444 85.667,135.665 89.607,135.665 Z" class="cls-1"/>
</svg>
