<svg xmlns="http://www.w3.org/2000/svg" xmlns:xlink="http://www.w3.org/1999/xlink" preserveAspectRatio="xMidYMid" width="195" height="128" viewBox="0 0 195 128">
  <defs>
    <style>
      .cls-1 {
        fill: #059feb;
        fill-rule: evenodd;
      }
    </style>
  </defs>
  <path d="M185.103,127.999 L9.897,127.999 C4.440,127.999 0.000,123.546 0.000,118.072 L0.000,9.927 C0.000,4.453 4.440,0.000 9.897,0.000 L185.103,0.000 C190.560,0.000 195.000,4.453 195.000,9.927 L195.000,118.072 C195.000,123.546 190.560,127.999 185.103,127.999 ZM188.682,9.927 C188.682,7.947 187.077,6.336 185.103,6.336 L9.897,6.336 C7.923,6.336 6.317,7.947 6.317,9.927 L6.317,30.416 L9.897,30.416 C10.013,30.416 10.108,30.320 10.108,30.204 L10.108,23.445 C10.108,19.835 13.036,16.897 16.636,16.897 L178.364,16.897 C181.964,16.897 184.892,19.835 184.892,23.445 L184.892,30.204 C184.892,30.320 184.987,30.416 185.103,30.416 L188.682,30.416 L188.682,9.927 ZM188.682,36.752 L185.103,36.752 C181.503,36.752 178.574,33.815 178.574,30.204 L178.574,23.445 C178.574,23.329 178.480,23.234 178.364,23.234 L16.636,23.234 C16.520,23.234 16.425,23.329 16.425,23.445 L16.425,30.204 C16.425,33.815 13.497,36.752 9.897,36.752 L6.317,36.752 L6.317,118.072 C6.317,120.052 7.923,121.663 9.897,121.663 L185.103,121.663 C187.077,121.663 188.682,120.052 188.682,118.072 L188.682,36.752 ZM170.726,97.583 L38.029,97.583 C38.021,97.583 38.014,97.585 38.006,97.585 C38.001,97.585 37.996,97.583 37.991,97.583 L24.273,97.583 C23.258,97.583 22.304,97.094 21.711,96.268 C16.324,88.769 13.477,79.948 13.477,70.758 C13.477,61.569 16.325,52.747 21.711,45.249 C22.305,44.423 23.258,43.933 24.274,43.933 L38.010,43.933 C38.025,43.933 38.040,43.933 38.056,43.933 L170.727,43.933 C171.742,43.933 172.696,44.423 173.289,45.249 C178.676,52.748 181.523,61.569 181.523,70.758 C181.523,79.949 178.675,88.770 173.289,96.268 C172.695,97.094 171.741,97.583 170.726,97.583 ZM141.091,76.959 C143.337,75.803 144.881,73.461 144.881,70.758 C144.881,68.056 143.337,65.714 141.091,64.558 L141.091,76.959 ZM25.932,50.270 C21.912,56.388 19.795,63.438 19.795,70.758 C19.795,78.079 21.911,85.129 25.932,91.247 L30.532,91.247 C26.058,85.435 23.585,78.279 23.585,70.758 C23.585,63.238 26.058,56.082 30.532,50.270 L25.932,50.270 ZM39.173,50.270 C33.272,55.454 29.903,62.857 29.903,70.758 C29.903,78.660 33.272,86.063 39.173,91.247 L45.722,91.247 C38.554,87.237 33.693,79.558 33.693,70.758 C33.693,61.959 38.554,54.280 45.722,50.270 L39.173,50.270 ZM53.909,64.558 C51.663,65.714 50.119,68.056 50.119,70.758 C50.119,73.461 51.663,75.803 53.909,76.959 L53.909,64.558 ZM53.909,83.681 C48.114,82.255 43.801,77.004 43.801,70.758 C43.801,64.513 48.114,59.261 53.909,57.836 L53.909,53.949 C46.008,55.440 40.011,62.408 40.011,70.759 C40.011,79.110 46.008,86.078 53.909,87.569 L53.909,83.681 ZM134.773,50.270 L60.227,50.270 L60.227,91.247 L134.773,91.247 L134.773,50.270 ZM169.068,50.270 L141.091,50.270 L141.091,57.836 C146.885,59.261 151.199,64.513 151.199,70.758 C151.199,77.004 146.885,82.256 141.091,83.681 L141.091,91.247 L169.068,91.247 C173.088,85.129 175.205,78.079 175.205,70.758 C175.205,63.438 173.089,56.388 169.068,50.270 Z" class="cls-1"/>
</svg>
